# xmcd CD Database Entry
#
# Track frame offsets:
# 150
# 15620
# 34186
# 58337
# 67230
# 85333
# 94779
# 114005
# 132720
# 151435
# 170069
#
# Disc length: 2456 seconds
#
# Revision: 4
# Processed by: cddbd v1.4PL0 Copyright (c) Steve Scherf et al.
# Submitted via: tcd 2.0b
#
DISCID=9a09960b
DTITLE=Natalye  tor
DYEAR=1900
DGENRE=
TTITLE0=Avril skter boy
TTITLE1=Avril Complicated
TTITLE2=Dandy Whorlos Goodles
TTITLE3=GoGodolls
TTITLE4=Gogodols
TTITLE5=Gogodols
TTITLE6=ac/dc bek in bek
TTITLE7=ac/dc hells bells
TTITLE8=Traccia 9
TTITLE9=Goodsmak 
TTITLE10=Natalye torn
EXTD=
EXTT0=
EXTT1=
EXTT2=
EXTT3=
EXTT4=
EXTT5=
EXTT6=
EXTT7=
EXTT8=
EXTT9=
EXTT10=
PLAYORDER=
